<?xml version="1.0" encoding="utf-8"?>
<!-- Generator: Adobe Illustrator 21.0.2, SVG Export Plug-In . SVG Version: 6.00 Build 0)  -->
<svg version="1.1" id="Calque_1" xmlns="http://www.w3.org/2000/svg" xmlns:xlink="http://www.w3.org/1999/xlink" x="0px" y="0px"
	 viewBox="0 0 507.5 82.5" style="enable-background:new 0 0 507.5 82.5;" xml:space="preserve">
<style type="text/css">
	.st0{fill:#12110B;}
	.st1{fill:#40B2B4;}
	.st2{fill:url(#SVGID_1_);}
	.st3{fill:#FFFFFF;}
	.st4{fill:#93D3E8;}
</style>
<g>
	<g>
		<g>
			<path class="st0" d="M17.7,35.2v29.9h-5.3V35.2H0v-4.7h29.5v4.7H17.7z"/>
			<path class="st0" d="M53.3,30.5h6.2l13.7,34.6h-5.4l-3.1-7.6H47.5l-3.2,7.6h-5.4L53.3,30.5z M48.9,53.4h14.4l-7-17.6L48.9,53.4z"
				/>
			<path class="st0" d="M89.6,30.5h15c7.7,0,13,3.4,13,11.1c0,5.9-4.3,10-9.9,10.7l12.1,11.9v0.9h-6.1l-12.6-12.7h-6.3v12.7h-5.3
				V30.5z M94.8,35.1v13h10.3c3.9,0,6.9-2.3,6.9-6.5c0-4.4-3.1-6.6-6.9-6.6H94.8z"/>
			<path class="st0" d="M166.8,61c-3.2,2.5-9.2,4.6-14.5,4.6c-10.2,0-18.4-6.6-18.4-17.7c0-11.2,8.2-17.8,18.4-17.8
				c5.6,0,9.8,1.9,13.2,4.8l-2.5,4.1c-2.8-2.5-6.1-3.9-10.6-3.9c-7.3,0-13.1,4.7-13.1,12.9c0,8.1,5.7,12.8,13.3,12.8
				c3.4,0,6.7-1,8.9-2.4v-7.9h-10.7v-4.6h16V61z"/>
			<path class="st0" d="M185.4,65.1V30.5h26.8v4.7h-21.7v9.7h18v4.7h-18v10.8h21.7v4.7H185.4z"/>
			<path class="st0" d="M244.2,35.2v29.9h-5.3V35.2h-12.4v-4.7H256v4.7H244.2z"/>
		</g>
		<g>
			<path class="st0" d="M355,57.5c2.3,1.5,6.5,3.2,11,3.2c5,0,8.5-1.9,8.5-5.3c0-2.4-1.8-3.8-6-4.8l-6.2-1.5c-5.8-1.4-8.6-4.5-8.6-9
				c0-5.4,4.2-10,13.4-10c4.8,0,9.5,1.4,12.1,2.7l-1.5,4.9c-2.4-1.5-6.9-2.7-10.8-2.7c-5.4,0-7.7,2-7.7,4.6c0,2.4,1.6,3.6,4.8,4.4
				l6.7,1.7c6.1,1.6,9.3,4.4,9.3,9.2c0,6.4-5.9,10.6-14.1,10.6c-5,0-10-1.7-12.1-3L355,57.5z"/>
			<path class="st0" d="M397.8,65.1V30.5h26.8v4.7h-21.8v9.7h18v4.7h-18v10.8h21.8v4.7H397.8z"/>
			<path class="st0" d="M442.8,65.1V30.5h5.3v29.9H467v4.6H442.8z"/>
			<path class="st0" d="M483.3,65.1V30.5h5.3v29.9h18.9v4.6H483.3z"/>
		</g>
	</g>
	<g>
		<path class="st1" d="M339.1,33.4c0-18.5-15-33.4-33.4-33.4c-18.5,0-33.4,15-33.4,33.4c0,9.4,3.8,17.8,10,23.9l23.4,25.2l23.5-25.3
			C335.3,51.1,339.1,42.7,339.1,33.4z"/>
		<linearGradient id="SVGID_1_" gradientUnits="userSpaceOnUse" x1="315.1922" y1="38.0443" x2="335.1106" y2="32.6608">
			<stop  offset="0" style="stop-color:#40B2B4"/>
			<stop  offset="1" style="stop-color:#63C4E1"/>
		</linearGradient>
		<path class="st2" d="M308.1,1.3c19.2,4,28.8,16.9,28.8,32.1c0,9.3-4.9,17.7-11,23.8L306.6,79C313.1,59.9,325.8,14,308.1,1.3z"/>
		<path class="st3" d="M300.3,45c0.2-3.5,3.4-6.7,9.7-9.6c6.3-2.9,9.5-7.5,9.5-13.8c0-8.7-4.6-13-13.8-13c-9.2,0-13.8,4.3-13.8,13
			h7.8c0-3.5,2-5.2,6-5.2c3.6,0,5.4,1.8,5.4,5.5c0,3.6-3.1,6.8-9.2,9.5c-6.1,2.7-9.7,7.2-10.5,13.6v7.8H320V45H300.3z"/>
		<polygon class="st4" points="296.9,60.9 305.7,71.6 314.5,60.9 		"/>
	</g>
</g>
</svg>
